<?xml version="1.0" standalone="no"?><!DOCTYPE svg PUBLIC "-//W3C//DTD SVG 1.1//EN" "http://www.w3.org/Graphics/SVG/1.1/DTD/svg11.dtd"><svg t="1656214426389" class="icon" viewBox="0 0 1024 1024" version="1.1" xmlns="http://www.w3.org/2000/svg" p-id="50560" xmlns:xlink="http://www.w3.org/1999/xlink" width="200" height="200"><defs><style type="text/css">@font-face { font-family: feedback-iconfont; src: url("//at.alicdn.com/t/font_1031158_u69w8yhxdu.woff2?t=1630033759944") format("woff2"), url("//at.alicdn.com/t/font_1031158_u69w8yhxdu.woff?t=1630033759944") format("woff"), url("//at.alicdn.com/t/font_1031158_u69w8yhxdu.ttf?t=1630033759944") format("truetype"); }
</style></defs><path d="M512 932.571429C744.275185 932.571429 932.571429 744.275185 932.571429 512 932.571429 279.724815 744.275185 91.428571 512 91.428571 279.724815 91.428571 91.428571 279.724815 91.428571 512 91.428571 744.275185 279.724815 932.571429 512 932.571429ZM634.137505 766.619906 391.691067 766.619906C377.333612 766.619906 365.714286 755.216221 365.714286 741.157027L365.714286 299.748593C365.714286 285.692229 377.333612 274.285714 391.691067 274.285714L634.137505 274.285714C648.49496 274.285714 660.114286 285.692229 660.114286 299.748593L660.114286 741.157027C660.111797 755.216221 648.49496 766.619906 634.137505 766.619906Z" p-id="50561" data-spm-anchor-id="a313x.7781069.0.i7" class="selected" fill="#409EFF"></path><path d="M391.690971 681.731657 634.1376 681.731657 634.1376 325.211429 391.690971 325.211429Z" p-id="50562" data-spm-anchor-id="a313x.7781069.0.i9" class="selected" fill="#409EFF"></path><path d="M512.913975 741.157027C522.468195 741.157027 530.231 733.541367 530.231 724.17423 530.231 714.809924 522.468195 707.194262 512.913975 707.194262 503.360377 707.194262 495.597572 714.809924 495.597572 724.17423 495.597572 733.541367 503.360377 741.157027 512.913975 741.157027L512.913975 741.157027Z" p-id="50563" data-spm-anchor-id="a313x.7781069.0.i11" class="selected" fill="#409EFF"></path></svg>