<?xml version="1.0" standalone="no"?><!DOCTYPE svg PUBLIC "-//W3C//DTD SVG 1.1//EN" "http://www.w3.org/Graphics/SVG/1.1/DTD/svg11.dtd"><svg t="1624769642419" class="icon" viewBox="0 0 1024 1024" version="1.1" xmlns="http://www.w3.org/2000/svg" p-id="11358" xmlns:xlink="http://www.w3.org/1999/xlink" width="128" height="128"><defs><style type="text/css"></style></defs><path d="M403.2 422.4c0-32-25.6-57.6-57.6-57.6s-57.6 19.2-57.6 57.6 25.6 57.6 57.6 57.6 57.6-25.6 57.6-57.6zM678.4 358.4c-32 0-57.6 25.6-57.6 57.6s25.6 57.6 57.6 57.6 57.6-25.6 57.6-57.6-25.6-57.6-57.6-57.6zM512 774.4c108.8 0 198.4-89.6 198.4-198.4H313.6c0 108.8 89.6 198.4 198.4 198.4z" p-id="11359"></path><path d="M512 51.2C256 51.2 51.2 256 51.2 512s211.2 467.2 467.2 467.2S985.6 768 985.6 512C979.2 256 768 51.2 512 51.2z m0 838.4c-204.8 0-377.6-166.4-377.6-377.6S307.2 134.4 512 134.4s377.6 166.4 377.6 377.6c0 204.8-172.8 377.6-377.6 377.6z" p-id="11360"></path></svg>